<svg
  xmlns="http://www.w3.org/2000/svg"
  viewBox="0 0 273 106"
  width="220"
  height="105"
>
  <polygon points="223.98 13.5 213.5 23.35 224.26 33.5 245.5 13.5 223.98 13.5" fill="#f5a623" />
  <polygon points="155.76 1.5 198.01 34.99 184.62 45.56 156.89 14.49 138.83 14.49 90.5 68.5 108.54 68.5 147.86 24.57 159.21 37.29 144.4 37.29 136.84 45.76 166.77 45.76 175.47 55.51 193.49 55.51 193.49 55.51 208.75 43.47 224.02 55.51 245.5 55.51 177.22 1.5 155.76 1.5" fill="#fff"/>
  <polygon points="103.79 13.5 92.92 40.16 82.05 13.5 64 13.5 53.11 40.23 42.21 13.5 27.5 13.5 43.4 52.5 62.82 52.5 73.03 27.46 83.23 52.5 102.6 52.5 118.5 13.5 103.79 13.5" fill="#fff"/>

  <path d="M52.85,96.23V99.5H37.1v-21H52.43v3.27H41v5.46H51.14v3.21H41v5.79Z" fill="#fff"/>
  <path d="M67,99.5,62.93,94,58.79,99.5H54.65l6.24-8.13-6-7.89h4.17L63,88.73,67,83.48h4l-6,7.83,6.27,8.19Z" fill="#fff"/>
  <path d="M87.09,84.32A7.37,7.37,0,0,1,90,87.2a9.31,9.31,0,0,1,0,8.59,7.35,7.35,0,0,1-2.9,2.9,8.48,8.48,0,0,1-4.18,1,6.47,6.47,0,0,1-5.13-2.16v7.77H74V83.48H77.6v2.1a5.75,5.75,0,0,1,2.3-1.71,7.69,7.69,0,0,1,3-.57A8.48,8.48,0,0,1,87.09,84.32ZM85.9,95.12a5.62,5.62,0,0,0,0-7.26,4.56,4.56,0,0,0-3.41-1.38,4.92,4.92,0,0,0-2.43.61,4.46,4.46,0,0,0-1.71,1.76,5.85,5.85,0,0,0,0,5.28,4.37,4.37,0,0,0,1.71,1.75,4.83,4.83,0,0,0,2.43.62A4.56,4.56,0,0,0,85.9,95.12Z" fill="#fff"/>
  <path d="M103.88,83.3v3.57a4.76,4.76,0,0,0-.87-.09,4.56,4.56,0,0,0-3.42,1.27,5.11,5.11,0,0,0-1.23,3.68V99.5H94.61v-16h3.57v2.34Q99.8,83.3,103.88,83.3Z" fill="#fff"/>
  <path d="M122.21,92.69H109.64a4.39,4.39,0,0,0,1.72,2.81,5.73,5.73,0,0,0,3.47,1,5.84,5.84,0,0,0,4.35-1.74l2,2.31a6.77,6.77,0,0,1-2.73,2,10.82,10.82,0,0,1-8.37-.39A7.56,7.56,0,0,1,107,95.74a8.28,8.28,0,0,1-1.09-4.25A8.36,8.36,0,0,1,107,87.28a7.58,7.58,0,0,1,3-2.93,8.62,8.62,0,0,1,4.26-1,8.38,8.38,0,0,1,4.18,1,7.42,7.42,0,0,1,2.88,2.92,8.81,8.81,0,0,1,1,4.33Q122.27,92,122.21,92.69Zm-11.09-5.32a4.46,4.46,0,0,0-1.51,2.83h9.09a4.42,4.42,0,0,0-1.47-2.82,4.47,4.47,0,0,0-3.06-1.08A4.54,4.54,0,0,0,111.12,87.37Z" fill="#fff"/>
  <path d="M127,99.2a9.59,9.59,0,0,1-3-1.29l1.44-2.85a8.94,8.94,0,0,0,2.59,1.15,10.83,10.83,0,0,0,3,.44q3.36,0,3.36-1.77a1.19,1.19,0,0,0-.86-1.17,14.69,14.69,0,0,0-2.74-.63,22.36,22.36,0,0,1-3.23-.69A5,5,0,0,1,125.43,91a3.82,3.82,0,0,1-.91-2.72,4.25,4.25,0,0,1,1.9-3.64,8.62,8.62,0,0,1,5.15-1.37,14.84,14.84,0,0,1,3.3.37,9.54,9.54,0,0,1,2.7,1l-1.44,2.85a8.88,8.88,0,0,0-4.59-1.2,5.1,5.1,0,0,0-2.51.5,1.46,1.46,0,0,0-.85,1.3,1.3,1.3,0,0,0,.91,1.28,14.68,14.68,0,0,0,2.84.7,21.87,21.87,0,0,1,3.15.69,4.91,4.91,0,0,1,2.11,1.32,3.68,3.68,0,0,1,.89,2.64,4.18,4.18,0,0,1-2,3.6,9.19,9.19,0,0,1-5.31,1.35A14.34,14.34,0,0,1,127,99.2Z" fill="#fff"/>
  <path d="M142.46,99.2a9.59,9.59,0,0,1-3-1.29l1.44-2.85a8.94,8.94,0,0,0,2.59,1.15,10.83,10.83,0,0,0,3,.44q3.36,0,3.36-1.77a1.19,1.19,0,0,0-.86-1.17,14.69,14.69,0,0,0-2.74-.63,22.36,22.36,0,0,1-3.23-.69A5,5,0,0,1,140.88,91a3.82,3.82,0,0,1-.91-2.72,4.25,4.25,0,0,1,1.9-3.64A8.62,8.62,0,0,1,147,83.3a14.84,14.84,0,0,1,3.3.37,9.54,9.54,0,0,1,2.7,1l-1.44,2.85a8.88,8.88,0,0,0-4.59-1.2,5.1,5.1,0,0,0-2.51.5,1.46,1.46,0,0,0-.85,1.3,1.3,1.3,0,0,0,.91,1.28,14.68,14.68,0,0,0,2.84.7,21.87,21.87,0,0,1,3.15.69,4.91,4.91,0,0,1,2.11,1.32,3.68,3.68,0,0,1,.89,2.64,4.18,4.18,0,0,1-1.95,3.6,9.19,9.19,0,0,1-5.31,1.35A14.34,14.34,0,0,1,142.46,99.2Z" fill="#fff"/>
  <path d="M161.81,80.42h-7.38V78.5h17v1.92H164V99.5h-2.22Z" fill="#fff"/>
  <path d="M178.77,84.41a7.62,7.62,0,0,1,3.68-.81v2.07l-.51,0a5,5,0,0,0-3.9,1.53,6.1,6.1,0,0,0-1.41,4.29v8H174.5V83.72h2v3.09A5.15,5.15,0,0,1,178.77,84.41Z" fill="#fff"/>
  <path d="M196.79,85.14a6,6,0,0,1,1.65,4.58V99.5h-2V97A4.9,4.9,0,0,1,194.28,99a7.38,7.38,0,0,1-3.31.69,6.49,6.49,0,0,1-4.2-1.26,4.34,4.34,0,0,1-.11-6.57,7.14,7.14,0,0,1,4.64-1.23h5v-1a4,4,0,0,0-1.14-3.1,4.71,4.71,0,0,0-3.33-1.07A8.23,8.23,0,0,0,189,86a7.25,7.25,0,0,0-2.37,1.36l-1-1.59a8.5,8.5,0,0,1,2.88-1.57,11.21,11.21,0,0,1,3.54-.56A6.72,6.72,0,0,1,196.79,85.14Zm-2.4,12a4.91,4.91,0,0,0,1.92-2.38V92.18h-4.95q-4.05,0-4.05,2.82a2.56,2.56,0,0,0,1.05,2.17,4.71,4.71,0,0,0,2.94.8A5.53,5.53,0,0,0,194.39,97.14Z" fill="#fff"/>
  <path d="M218.63,77.24V99.5h-2V96.38a6.51,6.51,0,0,1-2.54,2.43,7.42,7.42,0,0,1-3.55.84,8,8,0,0,1-4-1,7.29,7.29,0,0,1-2.82-2.85,9,9,0,0,1,0-8.34,7.17,7.17,0,0,1,2.82-2.83,8.11,8.11,0,0,1,4-1,7.56,7.56,0,0,1,3.46.79,6.59,6.59,0,0,1,2.54,2.33V77.24Zm-5,19.76a5.45,5.45,0,0,0,2.1-2.18,7.08,7.08,0,0,0,0-6.42,5.51,5.51,0,0,0-2.1-2.18,5.87,5.87,0,0,0-3-.76,6,6,0,0,0-3,.76,5.51,5.51,0,0,0-2.1,2.18,7.16,7.16,0,0,0,0,6.42,5.45,5.45,0,0,0,2.1,2.18,6.07,6.07,0,0,0,3,.76A6,6,0,0,0,213.66,97Z" fill="#fff"/>
  <path d="M238.31,92.27h-13.2a5.65,5.65,0,0,0,1.89,4,6.32,6.32,0,0,0,4.32,1.51,7,7,0,0,0,2.7-.52,5.91,5.91,0,0,0,2.13-1.55l1.2,1.38A6.77,6.77,0,0,1,234.72,99a9.47,9.47,0,0,1-7.77-.37A7.53,7.53,0,0,1,224,95.75,8.17,8.17,0,0,1,223,91.61a8.45,8.45,0,0,1,1-4.14,7.28,7.28,0,0,1,2.76-2.85,7.72,7.72,0,0,1,3.95-1,7.63,7.63,0,0,1,3.93,1,7.24,7.24,0,0,1,2.73,2.84,8.52,8.52,0,0,1,1,4.15Zm-11.45-5.39a5.74,5.74,0,0,0-1.75,3.8H236.3a5.75,5.75,0,0,0-1.76-3.8,5.81,5.81,0,0,0-7.68,0Z" fill="#fff"/>
</svg>
